<mxfile modified="2023-10-19T11:11:50.429Z" host="app.diagrams.net" agent="Mozilla/5.0 (X11; Linux x86_64) AppleWebKit/537.36 (KHTML, like Gecko) Chrome/118.0.0.0 Safari/537.36" etag="22z8trfFSkyQrlGs2GPG" version="22.0.5" type="github">
  <diagram id="Ht1M8jgEwFfnCIfOTk4-" name="Page-1">
    <mxGraphModel dx="1673" dy="797" grid="1" gridSize="10" guides="1" tooltips="1" connect="1" arrows="1" fold="1" page="1" pageScale="1" pageWidth="1169" pageHeight="827" math="0" shadow="0">
      <root>
        <mxCell id="0" />
        <mxCell id="1" parent="0" />
        <mxCell id="IbvGenf9ESDn4LlJbBb--12" style="edgeStyle=orthogonalEdgeStyle;rounded=0;orthogonalLoop=1;jettySize=auto;html=1;exitX=0.5;exitY=1;exitDx=0;exitDy=0;" parent="1" edge="1">
          <mxGeometry relative="1" as="geometry">
            <mxPoint x="260" y="280" as="sourcePoint" />
            <mxPoint x="260" y="280" as="targetPoint" />
          </mxGeometry>
        </mxCell>
        <mxCell id="IbvGenf9ESDn4LlJbBb--31" value="" style="outlineConnect=0;dashed=0;verticalLabelPosition=bottom;verticalAlign=top;align=center;html=1;shape=mxgraph.aws3.workspaces;fillColor=#D16A28;gradientColor=#F58435;gradientDirection=north;" parent="1" vertex="1">
          <mxGeometry x="180" y="92.75" width="82.5" height="94.5" as="geometry" />
        </mxCell>
        <mxCell id="IbvGenf9ESDn4LlJbBb--32" style="edgeStyle=orthogonalEdgeStyle;rounded=0;orthogonalLoop=1;jettySize=auto;html=1;exitX=1;exitY=0.5;exitDx=0;exitDy=0;exitPerimeter=0;" parent="1" source="IbvGenf9ESDn4LlJbBb--31" edge="1">
          <mxGeometry relative="1" as="geometry">
            <mxPoint x="460" y="140" as="targetPoint" />
          </mxGeometry>
        </mxCell>
        <mxCell id="IbvGenf9ESDn4LlJbBb--33" value="Client" style="text;html=1;strokeColor=none;fillColor=none;align=center;verticalAlign=middle;whiteSpace=wrap;rounded=0;" parent="1" vertex="1">
          <mxGeometry x="110" y="120" width="60" height="30" as="geometry" />
        </mxCell>
        <mxCell id="IbvGenf9ESDn4LlJbBb--42" value="" style="outlineConnect=0;dashed=0;verticalLabelPosition=bottom;verticalAlign=top;align=center;html=1;shape=mxgraph.aws3.lambda_function;fillColor=#F58534;gradientColor=none;" parent="1" vertex="1">
          <mxGeometry x="630" y="40" width="69" height="72" as="geometry" />
        </mxCell>
        <mxCell id="IbvGenf9ESDn4LlJbBb--76" value="" style="outlineConnect=0;dashed=0;verticalLabelPosition=bottom;verticalAlign=top;align=center;html=1;shape=mxgraph.aws3.android;fillColor=#5A69A4;gradientColor=none;" parent="1" vertex="1">
          <mxGeometry x="340" y="480" width="73.5" height="84" as="geometry" />
        </mxCell>
        <mxCell id="IbvGenf9ESDn4LlJbBb--77" value="" style="outlineConnect=0;dashed=0;verticalLabelPosition=bottom;verticalAlign=top;align=center;html=1;shape=mxgraph.aws3.android;fillColor=#5A69A4;gradientColor=none;" parent="1" vertex="1">
          <mxGeometry x="439.5" y="480" width="73.5" height="84" as="geometry" />
        </mxCell>
        <mxCell id="IbvGenf9ESDn4LlJbBb--78" value="" style="outlineConnect=0;dashed=0;verticalLabelPosition=bottom;verticalAlign=top;align=center;html=1;shape=mxgraph.aws3.android;fillColor=#5A69A4;gradientColor=none;" parent="1" vertex="1">
          <mxGeometry x="548" y="480" width="73.5" height="84" as="geometry" />
        </mxCell>
        <mxCell id="IbvGenf9ESDn4LlJbBb--92" style="edgeStyle=orthogonalEdgeStyle;rounded=0;orthogonalLoop=1;jettySize=auto;html=1;exitX=0.5;exitY=0;exitDx=0;exitDy=0;" parent="1" source="IbvGenf9ESDn4LlJbBb--87" target="IbvGenf9ESDn4LlJbBb--31" edge="1">
          <mxGeometry relative="1" as="geometry" />
        </mxCell>
        <mxCell id="IbvGenf9ESDn4LlJbBb--87" value="JSON Response" style="text;html=1;strokeColor=none;fillColor=none;align=center;verticalAlign=middle;whiteSpace=wrap;rounded=0;" parent="1" vertex="1">
          <mxGeometry x="191.25" y="274" width="60" height="30" as="geometry" />
        </mxCell>
        <mxCell id="IbvGenf9ESDn4LlJbBb--96" value="ANY&lt;br&gt;with Signature" style="text;html=1;strokeColor=none;fillColor=none;align=center;verticalAlign=middle;whiteSpace=wrap;rounded=0;" parent="1" vertex="1">
          <mxGeometry x="340" y="92.75" width="80" height="40" as="geometry" />
        </mxCell>
        <mxCell id="IbvGenf9ESDn4LlJbBb--98" value="" style="outlineConnect=0;dashed=0;verticalLabelPosition=bottom;verticalAlign=top;align=center;html=1;shape=mxgraph.aws3.android;fillColor=#5A69A4;gradientColor=none;" parent="1" vertex="1">
          <mxGeometry x="651.75" y="480" width="73.5" height="84" as="geometry" />
        </mxCell>
        <mxCell id="IbvGenf9ESDn4LlJbBb--101" value="DPD" style="text;html=1;strokeColor=none;fillColor=none;align=center;verticalAlign=middle;whiteSpace=wrap;rounded=0;" parent="1" vertex="1">
          <mxGeometry x="330" y="570" width="60" height="30" as="geometry" />
        </mxCell>
        <mxCell id="IbvGenf9ESDn4LlJbBb--108" value="OMNIVA" style="text;html=1;strokeColor=none;fillColor=none;align=center;verticalAlign=middle;whiteSpace=wrap;rounded=0;" parent="1" vertex="1">
          <mxGeometry x="446.25" y="564" width="60" height="30" as="geometry" />
        </mxCell>
        <mxCell id="IbvGenf9ESDn4LlJbBb--109" value="LP Express" style="text;html=1;strokeColor=none;fillColor=none;align=center;verticalAlign=middle;whiteSpace=wrap;rounded=0;" parent="1" vertex="1">
          <mxGeometry x="555" y="564" width="60" height="30" as="geometry" />
        </mxCell>
        <mxCell id="IbvGenf9ESDn4LlJbBb--110" value="Smartpost" style="text;html=1;strokeColor=none;fillColor=none;align=center;verticalAlign=middle;whiteSpace=wrap;rounded=0;" parent="1" vertex="1">
          <mxGeometry x="658.5" y="564" width="60" height="30" as="geometry" />
        </mxCell>
        <mxCell id="IbvGenf9ESDn4LlJbBb--115" value="" style="outlineConnect=0;dashed=0;verticalLabelPosition=bottom;verticalAlign=top;align=center;html=1;shape=mxgraph.aws3.mysql_db_instance_2;fillColor=#2E73B8;gradientColor=none;" parent="1" vertex="1">
          <mxGeometry x="569.25" y="750" width="60" height="63" as="geometry" />
        </mxCell>
        <mxCell id="IbvGenf9ESDn4LlJbBb--116" value="" style="outlineConnect=0;dashed=0;verticalLabelPosition=bottom;verticalAlign=top;align=center;html=1;shape=mxgraph.aws3.table;fillColor=#2E73B8;gradientColor=none;" parent="1" vertex="1">
          <mxGeometry x="360" y="660" width="67.5" height="66" as="geometry" />
        </mxCell>
        <mxCell id="IbvGenf9ESDn4LlJbBb--117" value="" style="outlineConnect=0;dashed=0;verticalLabelPosition=bottom;verticalAlign=top;align=center;html=1;shape=mxgraph.aws3.table;fillColor=#2E73B8;gradientColor=none;" parent="1" vertex="1">
          <mxGeometry x="517" y="660" width="67.5" height="66" as="geometry" />
        </mxCell>
        <mxCell id="IbvGenf9ESDn4LlJbBb--118" value="" style="outlineConnect=0;dashed=0;verticalLabelPosition=bottom;verticalAlign=top;align=center;html=1;shape=mxgraph.aws3.table;fillColor=#2E73B8;gradientColor=none;" parent="1" vertex="1">
          <mxGeometry x="438.75" y="660" width="67.5" height="66" as="geometry" />
        </mxCell>
        <mxCell id="IbvGenf9ESDn4LlJbBb--119" value="" style="outlineConnect=0;dashed=0;verticalLabelPosition=bottom;verticalAlign=top;align=center;html=1;shape=mxgraph.aws3.table;fillColor=#2E73B8;gradientColor=none;" parent="1" vertex="1">
          <mxGeometry x="750" y="660" width="67.5" height="66" as="geometry" />
        </mxCell>
        <mxCell id="VfG_WuXAYjkoEv0OF0y1-16" value="" style="outlineConnect=0;dashed=0;verticalLabelPosition=bottom;verticalAlign=top;align=center;html=1;shape=mxgraph.aws3.table;fillColor=#2E73B8;gradientColor=none;" vertex="1" parent="1">
          <mxGeometry x="597.25" y="660" width="67.5" height="66" as="geometry" />
        </mxCell>
        <mxCell id="VfG_WuXAYjkoEv0OF0y1-18" value="" style="outlineConnect=0;dashed=0;verticalLabelPosition=bottom;verticalAlign=top;align=center;html=1;shape=mxgraph.aws3.table;fillColor=#2E73B8;gradientColor=none;" vertex="1" parent="1">
          <mxGeometry x="676.25" y="660" width="67.5" height="66" as="geometry" />
        </mxCell>
        <mxCell id="VfG_WuXAYjkoEv0OF0y1-19" value="" style="outlineConnect=0;dashed=0;verticalLabelPosition=bottom;verticalAlign=top;align=center;html=1;shape=mxgraph.aws3.table;fillColor=#2E73B8;gradientColor=none;" vertex="1" parent="1">
          <mxGeometry x="830" y="660" width="67.5" height="66" as="geometry" />
        </mxCell>
        <mxCell id="VfG_WuXAYjkoEv0OF0y1-20" value="" style="outlineConnect=0;dashed=0;verticalLabelPosition=bottom;verticalAlign=top;align=center;html=1;shape=mxgraph.aws3.aws_iot;fillColor=#5294CF;gradientColor=none;direction=east;" vertex="1" parent="1">
          <mxGeometry x="461.5" y="94.5" width="67.5" height="81" as="geometry" />
        </mxCell>
        <mxCell id="VfG_WuXAYjkoEv0OF0y1-21" value="API Gateway" style="text;html=1;strokeColor=none;fillColor=none;align=center;verticalAlign=middle;whiteSpace=wrap;rounded=0;" vertex="1" parent="1">
          <mxGeometry x="469" y="61" width="60" height="30" as="geometry" />
        </mxCell>
        <mxCell id="VfG_WuXAYjkoEv0OF0y1-23" value="" style="endArrow=classic;startArrow=classic;html=1;rounded=0;entryX=0.145;entryY=0.855;entryDx=0;entryDy=0;entryPerimeter=0;" edge="1" parent="1" target="IbvGenf9ESDn4LlJbBb--42">
          <mxGeometry width="50" height="50" relative="1" as="geometry">
            <mxPoint x="529" y="137.75" as="sourcePoint" />
            <mxPoint x="579" y="87.75" as="targetPoint" />
          </mxGeometry>
        </mxCell>
        <mxCell id="VfG_WuXAYjkoEv0OF0y1-24" value="Auth Lambda" style="text;html=1;strokeColor=none;fillColor=none;align=center;verticalAlign=middle;whiteSpace=wrap;rounded=0;" vertex="1" parent="1">
          <mxGeometry x="637" y="10" width="60" height="30" as="geometry" />
        </mxCell>
        <mxCell id="VfG_WuXAYjkoEv0OF0y1-25" value="Complete auth for request and for shop" style="text;html=1;strokeColor=none;fillColor=none;align=center;verticalAlign=middle;whiteSpace=wrap;rounded=0;" vertex="1" parent="1">
          <mxGeometry x="697" y="37" width="156" height="75" as="geometry" />
        </mxCell>
        <mxCell id="VfG_WuXAYjkoEv0OF0y1-26" value="" style="endArrow=classic;html=1;rounded=0;exitX=1;exitY=0.79;exitDx=0;exitDy=0;exitPerimeter=0;" edge="1" parent="1" source="VfG_WuXAYjkoEv0OF0y1-20">
          <mxGeometry width="50" height="50" relative="1" as="geometry">
            <mxPoint x="510" y="240" as="sourcePoint" />
            <mxPoint x="610" y="230" as="targetPoint" />
          </mxGeometry>
        </mxCell>
        <mxCell id="VfG_WuXAYjkoEv0OF0y1-27" value="Proceed by route of incoming request" style="text;html=1;strokeColor=none;fillColor=none;align=center;verticalAlign=middle;whiteSpace=wrap;rounded=0;" vertex="1" parent="1">
          <mxGeometry x="676.25" y="241" width="115" height="30" as="geometry" />
        </mxCell>
        <mxCell id="VfG_WuXAYjkoEv0OF0y1-28" value="" style="outlineConnect=0;dashed=0;verticalLabelPosition=bottom;verticalAlign=top;align=center;html=1;shape=mxgraph.aws3.router;fillColor=#F58534;gradientColor=none;" vertex="1" parent="1">
          <mxGeometry x="600" y="220" width="69" height="72" as="geometry" />
        </mxCell>
        <mxCell id="VfG_WuXAYjkoEv0OF0y1-29" value="Router for incoming request" style="text;html=1;strokeColor=none;fillColor=none;align=center;verticalAlign=middle;whiteSpace=wrap;rounded=0;" vertex="1" parent="1">
          <mxGeometry x="597.25" y="180" width="79" height="40" as="geometry" />
        </mxCell>
      </root>
    </mxGraphModel>
  </diagram>
</mxfile>
